<svg width="132" height="153" viewBox="0 0 132 153" fill="none" xmlns="http://www.w3.org/2000/svg">
<path d="M58.4471 30.3981L2.19713 62.1111L22.336 58.6389M58.4471 30.3981L120.947 55.1667L22.336 58.6389M58.4471 30.3981L22.336 58.6389" stroke="black" stroke-width="2"/>
<path d="M5.90079 61.6481L29.2804 151L42.0119 150.552M42.0119 150.552L95.0212 148.685L118.632 55.6296L23.9563 58.6389L42.0119 150.552Z" stroke="black" stroke-width="2"/>
<path d="M58.1718 79.7037C56.32 83.176 52.8478 92.8982 54.4681 98.4537C56.2841 104.68 66.0949 105.881 68.5885 99.1482C70.9033 92.8982 66.9681 83.176 64.8848 79.7037" stroke="black" stroke-width="2"/>
<path d="M82.2897 149.148L94.3267 56.3241" stroke="black" stroke-width="2"/>
<path d="M23.4934 59.1018L41.5489 150.074L29.5119 150.768L6.82672 62.1111L23.4934 59.1018Z" fill="#E2E2E2" fill-opacity="0.5"/>
<path d="M117.938 55.8611L94.5582 148.454L42.4749 150.074L24.4193 59.1018L117.938 55.8611Z" fill="#E2E2E2" fill-opacity="0.5"/>
<path d="M123.488 75.2234C122.132 77.7604 115.023 77.5971 115.365 70.6399C115.558 66.6975 119.11 59.4331 125.597 62.0764C125.597 62.0764 129.244 62.2555 130.719 71.3942C132.194 80.5328 125.811 89.0529 124.15 91.5285C122.49 94.004 119.79 97.5278 113.644 105.658C107.499 113.788 104.719 118.935 102.607 122.783C100.494 126.631 99.6541 135.889 99.6541 135.889C99.6541 135.889 99.4132 144.71 103.444 144.908C107.474 145.106 108.175 142.584 108.289 140.265C108.403 137.945 107.975 134.902 103.876 136.096" stroke="black" stroke-width="2" stroke-linecap="round"/>
<path d="M6.09293 80.4418C7.09565 82.9212 10.6961 82.5706 9.66593 75.6817C9.08215 71.7779 6.82675 67.2037 3.35452 67.2037C3.35452 67.2037 0.576744 66.9722 1.27119 75.6817C1.96565 84.3911 6.61186 94.2154 7.76223 96.6259C8.91261 99.0363 10.4965 103.025 14.8512 110.356C19.2059 117.687 21.0302 123.283 22.5798 127.043C24.1294 130.802 25.6962 139.958 25.6962 139.958C25.6962 139.958 26.9105 147.456 24.8823 147.759C22.8541 148.063 22.1806 146.823 21.8372 144.527C21.4938 142.23 21.3372 139.202 23.5714 140.276" stroke="black" stroke-width="2" stroke-linecap="round"/>
<path d="M24.745 78.2091C25.4056 80.7256 27.0552 80.6673 26.0376 73.8152C25.461 69.9323 23.6473 62.7315 22.4781 65.2396C22.4781 65.2396 21.6448 65.3633 22.5291 74.3362C23.4135 83.3091 26.062 91.7866 26.7859 94.247C27.5099 96.7073 28.559 100.753 31.1595 108.304C33.76 115.855 35.0466 121.5 36.0618 125.318C37.077 129.136 38.5215 138.259 38.5215 138.259C38.5215 138.259 39.7666 146.945 38.8456 147.082C37.9246 147.218 37.42 144.725 37.0808 142.441C36.7416 140.157 36.4322 137.169 37.5567 138.402" stroke="black" stroke-width="2" stroke-linecap="round"/>
<path d="M51.5027 34.5648C52.7372 34.0247 55.0212 30.8611 55.2064 28.0834C55.5613 22.7593 50.5767 21.3704 53.8175 16.2778C56.109 12.6768 58.2156 11.1852 57.9841 2.38892" stroke="black" stroke-width="2"/>
<path d="M64.9285 32.9445C63.6547 32.4083 61.7537 30.6533 61.5627 27.8958C61.1964 22.6106 66.3395 21.2319 62.9957 16.1764C60.6313 12.6017 58.4577 11.121 58.6966 2.38892" stroke="black" stroke-width="2"/>
<path d="M58.6785 2.38889C58.6785 0.537036 57.9841 0.537039 57.9841 2.38889" stroke="black" stroke-width="2"/>
<path d="M58.2156 4.24072L58.91 7.71294L60.7619 12.8055L63.0767 15.3518L64.2341 18.8241L63.7712 21.8333L62.1508 24.6111L61.4563 28.3148L63.0767 32.0185L58.6786 31.5555L53.8175 32.4815L55.6693 28.3148L54.9749 24.6111L53.3545 22.0648L53.0244 18.8241L54.0489 15.3518L55.9008 12.8055L57.7526 7.71294L58.2156 4.24072Z" fill="black"/>
<path d="M56.3637 31.5555L22.7989 57.9444L3.35449 61.6481L56.3637 31.5555Z" fill="#9A9A9A"/>
<path d="M57.5212 31.5555L60.0674 31.324L119.79 54.9351L24.1878 57.9444L57.5212 31.5555Z" fill="#828282"/>
<path d="M57.2938 14.8889C54.2845 16.7407 54.516 18.3611 54.516 20.6759" stroke="white" stroke-width="2" stroke-linecap="round"/>
<path d="M108.679 79.9352L92.2434 144.982" stroke="#D1D1D1" stroke-opacity="0.5" stroke-width="2" stroke-linecap="round"/>
<path d="M112.614 63.0371L109.836 73.9167" stroke="#D1D1D1" stroke-opacity="0.5" stroke-width="2" stroke-linecap="round"/>
<path d="M42.0119 132.713L44.5582 147.296" stroke="#D1D1D1" stroke-opacity="0.5" stroke-width="2" stroke-linecap="round"/>
<path d="M75.3453 61.6482L29.9749 63.2686" stroke="#D1D1D1" stroke-opacity="0.5" stroke-width="2" stroke-linecap="round"/>
<path d="M38.0768 71.8334L33.6786 72.0649" stroke="#D1D1D1" stroke-opacity="0.5" stroke-width="2" stroke-linecap="round"/>
<path d="M76.5027 106.093L72.1045 106.324" stroke="#D1D1D1" stroke-opacity="0.5" stroke-width="2" stroke-linecap="round"/>
<path d="M81.1323 97.2963L76.7341 97.5278" stroke="#D1D1D1" stroke-opacity="0.5" stroke-width="2" stroke-linecap="round"/>
<path d="M85.7619 61.1852L81.3638 61.4167" stroke="#D1D1D1" stroke-opacity="0.5" stroke-width="2" stroke-linecap="round"/>
<path d="M54.2804 146.37L49.8823 146.602" stroke="#D1D1D1" stroke-opacity="0.5" stroke-width="2" stroke-linecap="round"/>
<path d="M47.799 76.926L43.4008 77.1574" stroke="#D1D1D1" stroke-opacity="0.5" stroke-width="2" stroke-linecap="round"/>
</svg>
