<svg width="245" height="75" viewBox="0 0 245 75" fill="none" xmlns="http://www.w3.org/2000/svg">
<path d="M10.68 68.96C10.76 68.96 10.68 68.84 10.44 68.6C10.28 68.76 9.92 68.84 9.36 68.84C9.2 68.84 8.96 68.76 8.64 68.6C8.4 68.52 8.24 68.48 8.16 68.48C8.08 68.48 7.88 68.52 7.56 68.6C7.32 68.68 7.12 68.72 6.96 68.72C6.88 68.72 6.64 68.64 6.24 68.48C5.84 68.4 5.56 68.36 5.4 68.36C5.32 67.32 4.4 66.92 2.64 67.16V66.92C2.64 66.36 2.52 65.92 2.28 65.6C2.04 65.28 1.84 64.76 1.68 64.04C1.6 63.96 1.44 63.8 1.2 63.56C1.04 63.24 0.96 62.64 0.96 61.76C0.96 61.76 1.04 61.6 1.2 61.28C1.28 61.2 1.2 61 0.96 60.68C1.04 60.6 1.2 59.96 1.44 58.76C1.52 58.36 1.56 58.04 1.56 57.8C1.64 57.56 1.68 57.36 1.68 57.2C1.2 56.8 0.96 56.44 0.96 56.12L1.32 55.28C1.4 55.36 1.68 55.4 2.16 55.4H2.64C2.8 55.16 2.96 54.92 3.12 54.68C3.36 54.36 3.64 54.04 3.96 53.72C4.44 53.72 4.88 53.28 5.28 52.4L5.16 51.92C5.24 51.76 5.32 51.64 5.4 51.56C5.4 51.56 5.44 51.56 5.52 51.56C5.52 51.56 5.48 51.56 5.4 51.56C5.48 51.56 5.6 51.6 5.76 51.68C5.84 51.6 6 51.44 6.24 51.2C6.48 50.96 6.88 50.64 7.44 50.24C7.68 49.92 8.08 49.52 8.64 49.04C9.6 48.4 10.12 48.08 10.2 48.08C10.36 48.08 10.72 47.84 11.28 47.36C11.44 47.44 11.56 47.52 11.64 47.6C11.72 47.6 11.76 47.6 11.76 47.6C11.92 47.6 12.56 47.32 13.68 46.76C13.6 47.08 13.68 47.24 13.92 47.24H14.76C15.16 47 15.36 46.88 15.36 46.88C16.16 46.88 17.12 47.32 18.24 48.2C18.32 48.28 18.44 48.32 18.6 48.32V50.24C18.44 50.24 18.28 50.16 18.12 50L17.64 51.08C17.96 51.56 18.12 51.8 18.12 51.8C17.96 51.88 17.56 52.56 16.92 53.84V54.8C16.6 54.8 16.32 54.84 16.08 54.92C14.8 55.8 14.08 56.24 13.92 56.24H13.68C13.6 56.16 13.52 56.12 13.44 56.12C13.12 56.12 12.68 56.28 12.12 56.6C12.04 56.68 11.92 56.84 11.76 57.08C11.6 57.24 11.4 57.32 11.16 57.32H11.04C11.04 57.24 11 57.2 10.92 57.2C10.76 57.2 10.32 57.36 9.6 57.68C8.96 57.92 8.6 58.04 8.52 58.04H8.28C8.2 57.96 8.12 57.92 8.04 57.92L7.68 58.28H6.96C6.64 58.28 6.4 58.2 6.24 58.04H4.68C4.68 58.36 4.56 58.84 4.32 59.48C4.16 60.12 4.08 60.48 4.08 60.56C4.08 60.8 4.36 61.36 4.92 62.24C5 62.32 5.16 62.52 5.4 62.84C5.64 63.08 6 63.4 6.48 63.8C6.64 64.12 6.88 64.44 7.2 64.76C7.36 64.84 7.52 64.88 7.68 64.88C7.84 64.88 8.04 64.92 8.28 65L8.64 65.48C8.88 65.32 9.24 65.32 9.72 65.48L10.32 65.84C10.72 65.84 10.92 65.84 10.92 65.84C10.92 65.76 10.92 65.72 10.92 65.72C11 65.8 11 65.84 10.92 65.84C11 65.92 11.08 65.96 11.16 65.96C11.24 65.96 11.32 65.92 11.4 65.84C11.56 65.68 11.68 65.6 11.76 65.6H12C12 65.68 12.04 65.72 12.12 65.72C12.36 65.72 12.64 65.56 12.96 65.24C13.2 65.32 13.44 65.32 13.68 65.24L13.8 65.36V65.72C13.64 65.8 13.44 65.92 13.2 66.08C12.96 66.24 12.64 66.4 12.24 66.56V67.04C12.24 67.12 12.4 67.16 12.72 67.16C14.08 67.16 15.16 66.76 15.96 65.96C16.12 66.04 16.24 66.12 16.32 66.2C16.4 66.2 16.44 66.2 16.44 66.2C16.6 66.2 16.68 66.12 16.68 65.96H17.28C17.44 65.88 17.68 65.68 18 65.36C18.32 64.96 18.64 64.76 18.96 64.76L19.44 64.88L19.8 63.92L20.16 64.16C20.32 64 20.68 63.92 21.24 63.92C21.24 63.92 21.24 63.88 21.24 63.8C21.24 63.72 21.28 63.64 21.36 63.56C22.16 63.4 23.16 62.72 24.36 61.52H24.84L26.64 60.08C26.64 59.92 26.76 59.68 27 59.36C27.08 59.36 27.2 59.44 27.36 59.6L28.44 58.16C28.68 58.16 28.96 58.04 29.28 57.8L29.64 58.16L28.8 59.24C28.32 59.56 27.72 60.04 27 60.68C26.28 61.32 25.48 62.08 24.6 62.96C24.04 62.96 23.72 63.12 23.64 63.44C22.92 63.76 22.44 64.12 22.2 64.52L21.84 64.16C21.76 64.24 21.52 64.44 21.12 64.76C20.8 65 20.24 65.32 19.44 65.72C19.28 65.88 19.04 66.12 18.72 66.44C18.4 66.68 18.08 66.8 17.76 66.8C17.6 66.8 17.56 66.76 17.64 66.68H17.52C17.2 66.68 16.88 66.8 16.56 67.04C16.24 67.28 16.08 67.48 16.08 67.64C16 67.64 15.88 67.56 15.72 67.4C14.68 67.96 14.08 68.24 13.92 68.24H13.68L13.56 68.12L11.76 68.6C11.76 68.6 11.76 68.56 11.76 68.48C11.76 68.4 11.72 68.32 11.64 68.24L11.28 68.72C11.2 68.72 11.08 68.76 10.92 68.84C10.84 68.92 10.76 68.96 10.68 68.96ZM7.8 56.84C7.72 56.6 7.8 56.48 8.04 56.48C8.12 56.48 8.16 56.52 8.16 56.6H8.4C8.48 56.6 8.64 56.48 8.88 56.24C9.2 56 9.4 55.88 9.48 55.88C9.56 55.88 9.68 55.92 9.84 56C10 56.08 10.12 56.12 10.2 56.12C10.04 56.12 10.24 55.84 10.8 55.28L11.16 55.52C13 54.32 13.92 53.28 13.92 52.4C13.92 51.36 13.4 50.72 12.36 50.48C11.4 50.24 10.48 50 9.6 49.76C9.44 49.92 9.28 50 9.12 50C8.72 50.64 8.28 51.12 7.8 51.44C7.64 51.44 7.16 51.84 6.36 52.64C6.36 52.72 6.12 53.08 5.64 53.72C5.48 54.28 5.32 54.72 5.16 55.04C5.08 55.36 5.04 55.6 5.04 55.76C5.36 56.32 5.68 56.6 6 56.6H6.12C6.2 56.52 6.28 56.48 6.36 56.48C6.76 56.48 7.24 56.6 7.8 56.84ZM30.12 57.56V57.32C30.12 56.84 30.36 56.56 30.84 56.48C30.76 56.8 30.52 57.16 30.12 57.56ZM26.1638 69.44C26.0838 69.36 26.0438 69.24 26.0438 69.08C26.0438 68.76 26.1638 68.44 26.4038 68.12C26.6438 67.8 26.7638 67.64 26.7638 67.64L26.8838 65.48C27.0438 65.24 27.3638 64.92 27.8438 64.52C27.8438 64.28 27.9238 63.92 28.0838 63.44C28.0038 63.52 27.9638 63.16 27.9638 62.36C28.1238 62.2 28.2438 62.04 28.3238 61.88C28.2438 61.8 28.2038 61.08 28.2038 59.72C28.2038 59.8 28.3238 59.6 28.5638 59.12C28.4838 58.8 28.4838 58.4 28.5638 57.92C28.7238 57.6 28.8438 57.28 28.9238 56.96C29.0038 56.56 29.0038 56.2 28.9238 55.88L28.6838 53.24C28.6038 52.12 28.6038 51.52 28.6838 51.44C28.5238 51.04 28.5638 50.68 28.8037 50.36C28.5638 49 27.6838 47.8 26.1638 46.76V46.16C26.2438 46.16 26.3638 46.12 26.5238 46.04C26.6838 45.96 26.8038 45.92 26.8838 45.92C26.9638 45.92 27.1238 46 27.3638 46.16C27.6838 46.32 27.8838 46.4 27.9638 46.4H29.5238C29.4438 46.48 29.6838 46.92 30.2438 47.72C30.8838 48.44 31.3238 49.24 31.5638 50.12C31.5638 50.36 31.6038 50.64 31.6838 50.96C31.8438 51.28 32.0438 51.48 32.2838 51.56C32.5238 52.28 32.6438 53.04 32.6438 53.84C32.6438 54.16 32.6038 54.52 32.5238 54.92C32.5238 55.24 32.4838 55.6 32.4038 56L32.7637 56.36C33.0038 56.92 33.1238 57.52 33.1238 58.16L33.4838 58.28L36.0038 54.56C36.0038 54.48 36.2438 54.28 36.7238 53.96C36.8838 53.64 37.1238 53.32 37.4438 53C37.8438 53 38.0438 52.88 38.0438 52.64C38.0438 52.32 38.4438 51.84 39.2438 51.2C39.4838 50.08 40.1238 49.48 41.1638 49.4V49.28C41.1638 48.8 41.3638 48.56 41.7638 48.56C42.1638 48.48 42.4038 48.16 42.4837 47.6L43.5638 46.88C43.6438 46.72 43.7238 46.56 43.8038 46.4C43.8838 46.24 44.0038 46.04 44.1638 45.8C44.2438 45.72 44.5638 45.6 45.1238 45.44C46.5638 44.48 47.2838 43.96 47.2838 43.88C47.3638 43.8 47.5238 43.68 47.7638 43.52C47.9238 43.44 48.0838 43.36 48.2438 43.28C48.4038 43.2 48.6038 43.12 48.8438 43.04C48.8438 43.04 48.9238 42.92 49.0838 42.68C49.2438 42.36 49.4038 42.2 49.5638 42.2C49.6438 42.2 49.6838 42.24 49.6838 42.32H49.8038C49.6438 42.32 50.0838 42.04 51.1238 41.48C51.3638 41.32 51.6038 41.2 51.8438 41.12C52.1638 41.04 52.4838 40.96 52.8038 40.88C53.2838 40.08 53.9638 39.68 54.8438 39.68C54.9238 39.68 54.9638 39.72 54.9638 39.8C55.0438 39.88 55.1638 39.92 55.3238 39.92C55.4038 39.92 55.4838 39.88 55.5638 39.8C55.7238 39.72 55.8438 39.68 55.9238 39.68C56.7238 39.68 57.3238 40.12 57.7238 41C58.3638 42.44 58.6838 43.96 58.6838 45.56V48.68C58.6838 48.76 58.7638 48.88 58.9238 49.04C58.9238 49.2 58.8838 49.36 58.8038 49.52L59.4038 53.6L60.1237 57.32C60.2838 57.64 60.4838 58 60.7238 58.4C60.9638 58.72 61.1638 59.12 61.3238 59.6L61.6838 59.84C62.0838 60 62.2838 60.4 62.2838 61.04L63.7238 61.64C64.1238 62.04 64.2838 62.2 64.2038 62.12L65.6438 61.4C65.8038 61.48 65.9238 61.56 66.0038 61.64C66.0838 61.64 66.1238 61.64 66.1238 61.64C66.2838 61.64 66.6038 61.36 67.0838 60.8C67.6438 60.24 67.9638 59.84 68.0438 59.6C68.2038 59.6 68.3238 59.64 68.4038 59.72C68.4838 59.88 68.5238 60 68.5238 60.08C68.6038 60.16 68.6438 60.2 68.6438 60.2C68.6438 60.44 67.8438 61.36 66.2438 62.96C66.1638 62.96 66.0838 63.04 66.0038 63.2C65.9238 63.28 65.8438 63.32 65.7638 63.32C65.6038 63.32 65.5638 63.28 65.6438 63.2H65.5238C65.3638 63.2 65.2038 63.44 65.0438 63.92L63.4838 65V65.48C62.6038 65.8 61.9638 66.04 61.5638 66.2C61.1638 66.36 61.0038 66.44 61.0838 66.44C60.7638 66.44 60.5638 66.36 60.4838 66.2C60.4038 66.04 60.3238 65.96 60.2438 65.96H60.1237C60.1237 66.04 60.0838 66.08 60.0038 66.08C59.5238 66.08 59.2038 65.84 59.0438 65.36L58.9238 65.48C58.6038 65.48 58.2038 65.2 57.7238 64.64C57.2438 64 56.9238 63.6 56.7638 63.44L57.0038 63.2C57.0038 63.04 56.8438 62.92 56.5237 62.84C56.2838 61.88 56.0838 61.48 55.9238 61.64C55.7638 61.8 55.6438 61.36 55.5638 60.32C55.6438 60.16 55.6837 59.96 55.6837 59.72C55.6837 59.4 55.7238 59.08 55.8038 58.76C55.4038 58.04 54.9638 57.8 54.4838 58.04C54.4838 57.88 54.4038 57.56 54.2438 57.08C54.3238 56.92 54.3638 56.84 54.3638 56.84C54.3638 56.76 54.3638 56.72 54.3638 56.72C54.1238 56.32 54.0838 55.8 54.2438 55.16L54.4838 54.08L54.1238 53.6V52.52C53.8038 52.36 53.5638 52.2 53.4038 52.04C53.2438 51.8 53.0838 51.64 52.9238 51.56V49.52C53.0838 49.12 53.2038 48.88 53.2838 48.8L52.6838 47.96V47.72C52.6838 47.48 52.6038 47.2 52.4438 46.88C52.2838 46.48 52.0838 46 51.8438 45.44C51.3638 44.96 50.8838 44.72 50.4038 44.72C50.3238 44.72 50.2438 44.76 50.1638 44.84C50.1638 44.92 50.0838 44.96 49.9238 44.96C50.0838 44.96 49.9638 44.88 49.5638 44.72C49.4038 44.88 49.3238 45.04 49.3238 45.2C48.7638 45.2 48.3638 45.32 48.1238 45.56C47.8838 45.8 47.7638 45.92 47.7638 45.92C47.6838 45.92 47.6438 45.88 47.6438 45.8C47.7238 45.72 47.7238 45.68 47.6438 45.68C47.6438 45.68 47.0838 46.16 45.9638 47.12C45.8038 47.12 45.6838 47.16 45.6038 47.24C45.2038 47.48 45.0038 47.72 45.0038 47.96C43.9638 48.28 42.7638 49.36 41.4038 51.2C41.3238 51.2 41.1238 51.28 40.8038 51.44C40.2438 52.08 39.5238 52.88 38.6438 53.84C37.7638 54.72 36.7638 55.76 35.6438 56.96C35.4038 57.2 35.2038 57.44 35.0438 57.68C34.8838 57.92 34.4438 58.52 33.7238 59.48C33.6438 59.56 33.5238 59.68 33.3638 59.84C33.2038 60 33.0438 60.16 32.8838 60.32C32.8838 60.56 32.7238 60.96 32.4038 61.52C32.1638 62 32.0438 62.68 32.0438 63.56C32.0438 63.72 31.8438 64.08 31.4438 64.64C31.0438 65.2 30.8438 65.64 30.8438 65.96C30.8438 66.12 30.8838 66.24 30.9638 66.32C30.7238 66.4 30.3638 66.56 29.8838 66.8C29.4838 67.04 29.2438 67.16 29.1638 67.16C29.0838 67.16 29.0038 67.12 28.9238 67.04C28.9238 66.96 28.8838 66.92 28.8037 66.92C28.6438 66.92 28.4038 67.08 28.0838 67.4V67.64C28.0838 67.88 27.9638 68.24 27.7238 68.72C27.1638 68.72 26.8838 68.96 26.8838 69.44C26.5638 69.52 26.3238 69.52 26.1638 69.44ZM134.557 32.96L133.597 32.72C133.677 32.72 133.837 32.56 134.077 32.24C134.317 31.84 134.557 31.68 134.797 31.76C134.957 31.6 135.037 31.76 135.037 32.24H135.517C135.437 32.4 135.277 32.56 135.037 32.72C134.797 32.88 134.637 32.96 134.557 32.96ZM99.5166 74.84C99.4366 74.68 99.4366 74.56 99.5166 74.48H99.3966C99.2366 74.16 99.1566 73.84 99.1566 73.52C99.1566 73.12 99.1966 72.96 99.2766 73.04V72.8C99.4366 72.48 99.5566 72.04 99.6366 71.48C99.7966 71 99.9566 70.4 100.117 69.68C99.9566 69.84 99.8366 69.92 99.7566 69.92C99.8366 69.92 99.7166 69.8 99.3966 69.56C99.0766 69.4 98.9166 69.32 98.9166 69.32L99.3966 67.76C99.3966 67.68 99.3566 67.6 99.2766 67.52C99.1966 67.44 99.1566 67.36 99.1566 67.28L98.6766 63.32L98.1966 63.68V62.72L97.4766 60.2C97.5566 60.44 97.6766 60.76 97.8366 61.16C97.9966 61.48 98.1966 61.92 98.4366 62.48C98.5166 62.4 98.5566 62.2 98.5566 61.88C98.5566 61.24 98.3966 60.64 98.0766 60.08L97.9566 59.36C97.7966 59.36 97.6366 59.6 97.4766 60.08C97.3966 59.2 97.1566 58.24 96.7566 57.2C96.8366 57.12 96.8766 56.92 96.8766 56.6C96.3966 55.8 96.2366 55.2 96.3966 54.8C96.3166 54.16 96.2366 53.72 96.1566 53.48C96.1566 53.16 96.1566 53 96.1566 53C95.7566 52.6 95.6366 52.32 95.7966 52.16V51.44C95.5566 51.28 95.4766 51.12 95.5566 50.96C94.9966 50.16 94.8366 49.16 95.0766 47.96C94.9166 47.88 94.5966 47.44 94.1166 46.64C93.6366 45.84 93.1966 45.44 92.7966 45.44C92.7166 45.44 92.6766 45.52 92.6766 45.68C92.6766 45.84 92.5966 45.92 92.4366 45.92H92.3166C92.3166 45.84 92.2766 45.8 92.1966 45.8C92.1166 45.8 91.8766 46.16 91.4766 46.88C91.0766 47.6 90.4766 48.6 89.6766 49.88C89.5966 49.8 89.5166 49.76 89.4366 49.76C89.3566 49.76 89.2366 49.72 89.0766 49.64C89.2366 49.08 89.5166 48.36 89.9166 47.48C90.3166 46.52 91.0766 45.16 92.1966 43.4C92.8366 42.44 93.4766 41.88 94.1166 41.72H94.4766C94.5566 41.64 94.6766 41.6 94.8366 41.6C95.0766 41.6 95.3966 41.76 95.7966 42.08H96.1566C96.1566 41.84 96.2766 41.6 96.5166 41.36C96.8366 41.52 97.0766 41.72 97.2366 41.96C97.4766 42.2 97.6766 42.4 97.8366 42.56C98.8766 44.88 100.077 47.12 101.437 49.28C101.437 50.64 101.557 51.88 101.797 53C101.877 53.16 101.957 53.36 102.037 53.6C102.197 53.84 102.277 54 102.277 54.08L101.917 54.44C102.157 55.16 102.237 55.8 102.157 56.36C102.157 56.44 102.077 56.56 101.917 56.72C101.837 56.88 101.797 57 101.797 57.08C101.797 57.24 101.877 57.4 102.037 57.56C101.957 57.8 101.917 58.24 101.917 58.88L102.277 60.92V63.08L102.637 63.32C102.637 62.92 102.757 62.36 102.997 61.64C104.117 61 104.477 60.12 104.077 59C104.237 59 104.397 58.88 104.557 58.64C104.717 58.4 105.117 57.56 105.757 56.12L106.717 55.16C106.637 55.24 106.597 55.08 106.597 54.68C107.157 53.96 107.277 53.44 106.957 53.12C107.037 53.2 107.117 53.24 107.197 53.24C107.357 53.08 107.357 52.92 107.197 52.76C107.197 52.76 107.237 52.72 107.317 52.64C107.477 52.48 107.717 52.32 108.037 52.16C108.037 51.92 107.997 51.76 107.917 51.68L108.877 50.48C108.957 50.32 109.037 50.12 109.117 49.88C109.277 49.64 109.397 49.32 109.477 48.92C109.797 48.28 110.237 47.6 110.797 46.88C111.357 46.08 112.077 45.24 112.957 44.36C113.197 44.28 113.357 43.96 113.437 43.4C113.517 43.32 113.717 43.24 114.037 43.16C114.197 42.92 114.397 42.68 114.637 42.44C114.957 42.12 115.277 41.8 115.597 41.48C115.677 41.24 115.957 40.96 116.437 40.64L117.277 40.04C117.357 39.96 117.397 39.84 117.397 39.68C117.797 39.36 118.157 39 118.477 38.6C118.797 38.2 119.117 37.76 119.437 37.28C119.517 37.28 119.717 37.44 120.037 37.76C120.117 37.68 120.157 37.52 120.157 37.28C120.157 37.36 120.237 37.4 120.397 37.4C120.237 37.4 120.557 37 121.357 36.2C121.757 36.12 122.277 35.76 122.917 35.12C123.957 34.56 124.677 34.28 125.077 34.28C125.157 34.28 125.197 34.32 125.197 34.4H125.317C125.317 34.4 125.477 34.28 125.797 34.04C126.117 33.8 126.397 33.56 126.637 33.32L126.877 33.56C126.877 33.48 126.917 33.4 126.997 33.32C126.997 33.4 127.077 33.44 127.237 33.44C127.797 33.44 128.597 33.08 129.637 32.36C129.717 32.36 129.717 32.4 129.637 32.48C129.637 32.56 129.677 32.6 129.757 32.6C129.517 32.6 129.997 32.48 131.197 32.24H132.277C132.357 32.16 132.437 32.12 132.517 32.12C132.677 32.12 132.917 32.28 133.237 32.6C132.917 32.76 132.757 32.88 132.757 32.96C132.677 32.96 132.677 32.96 132.757 32.96L132.397 32.6C131.917 33.08 131.637 33.32 131.557 33.32C131.477 33.32 131.437 33.36 131.437 33.44H131.197C131.197 33.36 131.157 33.32 131.077 33.32C130.757 33.32 130.277 33.48 129.637 33.8C129.077 34.12 128.597 34.28 128.197 34.28L128.077 34.4V34.88C128.237 34.88 128.477 35.04 128.797 35.36C128.797 35.52 128.837 35.68 128.917 35.84H128.557C128.477 35.92 128.437 36.04 128.437 36.2C128.437 36.28 128.157 36.36 127.597 36.44C127.517 36.52 127.357 36.68 127.117 36.92C126.877 37.08 126.597 37.16 126.277 37.16C126.197 37.16 126.077 37.12 125.917 37.04C125.837 36.96 125.757 36.92 125.677 36.92C125.277 36.92 124.757 37.16 124.117 37.64C123.957 37.8 123.997 37.92 124.237 38C123.997 38.24 123.877 38.4 123.877 38.48C123.717 38.24 123.557 38.2 123.397 38.36C123.637 38.44 123.757 38.6 123.757 38.84C123.757 39.16 123.237 39.56 122.197 40.04C122.117 40.6 121.797 41 121.237 41.24C120.917 40.92 120.717 40.68 120.637 40.52C120.557 40.6 120.357 40.68 120.037 40.76C120.037 40.92 120.237 41.08 120.637 41.24C119.837 42.04 119.237 42.64 118.837 43.04C118.517 43.44 118.357 43.64 118.357 43.64C118.197 43.64 118.117 43.6 118.117 43.52C118.117 43.44 118.077 43.4 117.997 43.4L117.877 43.52L117.397 44.36C117.077 44.36 116.677 44.72 116.197 45.44C115.797 46.16 115.517 46.52 115.357 46.52H115.237C115.237 46.44 115.197 46.4 115.117 46.4C114.877 46.4 114.437 46.96 113.797 48.08L112.957 48.68C112.317 49.16 111.957 49.8 111.877 50.6L111.637 50.36H111.277C111.357 50.36 111.397 50.4 111.397 50.48C111.397 50.64 111.157 51 110.677 51.56C110.197 52.04 109.917 52.48 109.837 52.88C109.677 53.2 109.517 53.48 109.357 53.72C109.197 53.96 109.077 54.2 108.997 54.44C108.997 54.44 108.877 54.52 108.637 54.68C108.477 54.76 108.317 55 108.157 55.4V56.24C107.837 56.24 107.597 56.44 107.437 56.84C107.357 57.24 107.237 57.6 107.077 57.92C106.517 58.48 105.957 59.2 105.397 60.08V61.16C103.957 62.68 103.237 63.92 103.237 64.88C103.237 64.96 103.317 65.28 103.477 65.84C103.637 66.32 103.717 66.64 103.717 66.8C103.717 67.76 103.677 68.16 103.597 68L102.037 68.36C101.877 68.84 101.677 69.2 101.437 69.44C101.357 70.24 101.077 70.96 100.597 71.6C100.197 72.32 99.8366 73.4 99.5166 74.84ZM122.613 68.48C122.373 68.48 122.173 68.28 122.013 67.88C121.933 67.96 121.893 68.04 121.893 68.12H121.173L120.813 67.4C120.733 67.48 120.693 67.56 120.693 67.64C120.613 67.64 120.493 67.56 120.333 67.4L119.973 67.64C119.573 67.24 119.133 66.72 118.653 66.08C118.253 65.36 118.013 64.64 117.933 63.92C117.853 63.84 117.693 63.8 117.453 63.8V62.84C117.773 62.76 117.973 62.12 118.053 60.92L118.413 60.44V59.84L118.173 59.6L118.653 59.24L119.973 55.52L121.173 54.2V53.84C122.133 53.2 122.733 52.52 122.973 51.8C123.293 51.8 123.453 51.64 123.453 51.32C124.493 51 124.893 50.48 124.653 49.76C124.813 49.68 124.893 49.64 124.893 49.64C124.973 49.64 125.013 49.64 125.013 49.64C125.093 49.64 125.253 49.72 125.493 49.88C125.733 49.96 125.893 50 125.973 50C126.133 50 126.253 49.96 126.333 49.88C126.493 49.8 126.613 49.76 126.693 49.76C127.013 50.08 127.213 50.24 127.293 50.24C127.693 50.24 128.093 50.08 128.493 49.76C128.493 49.84 128.533 49.96 128.613 50.12C128.693 50.28 128.733 50.4 128.733 50.48C128.733 50.88 128.573 51.24 128.253 51.56L128.613 52.04C128.613 52.6 128.133 53.48 127.173 54.68C126.213 55.72 125.533 56.32 125.133 56.48C125.053 56.56 124.973 56.72 124.893 56.96C124.813 57.12 124.693 57.28 124.533 57.44H124.293L124.053 57.2L122.853 58.76C122.853 59.08 122.533 59.68 121.893 60.56C121.653 60.64 121.453 60.68 121.293 60.68C121.213 60.6 121.173 60.6 121.173 60.68V61.52C121.573 62.24 121.733 62.72 121.653 62.96C121.413 63.44 121.293 63.72 121.293 63.8C121.293 63.72 121.533 64.04 122.013 64.76C121.933 64.84 121.893 65.12 121.893 65.6C122.533 65.68 123.373 66.04 124.413 66.68H124.893C125.213 66.68 125.413 66.64 125.493 66.56C125.653 66.4 125.733 66.32 125.733 66.32C125.813 66.32 125.853 66.36 125.853 66.44H125.973C126.053 66.44 126.253 66.28 126.573 65.96C126.893 65.64 127.093 65.48 127.173 65.48C127.253 65.48 127.293 65.52 127.293 65.6C127.293 65.68 127.333 65.72 127.413 65.72C127.493 65.72 127.653 65.68 127.893 65.6C128.133 65.52 128.333 65.48 128.493 65.48V65.12C128.413 65.04 128.413 65 128.493 65V65.12C128.573 65.2 128.853 65.32 129.333 65.48L129.213 65C129.453 64.92 129.653 64.68 129.813 64.28C130.213 64.28 130.573 64.24 130.893 64.16C131.293 64 131.493 63.8 131.493 63.56H132.453C132.453 63.72 132.533 63.8 132.693 63.8C133.493 63.8 133.933 63.28 134.013 62.24L134.733 61.52C134.733 61.52 134.813 61.6 134.973 61.76C135.293 61.44 135.573 61.28 135.813 61.28C135.893 61.28 135.933 61.32 135.933 61.4C136.013 61.48 136.133 61.52 136.293 61.52C136.533 61.52 136.773 61.4 137.013 61.16C137.253 60.92 137.373 60.76 137.373 60.68C137.533 60.52 137.733 60.36 137.973 60.2C138.213 60.04 138.413 59.8 138.573 59.48L139.293 59.84C139.213 59.76 140.053 59.04 141.813 57.68C142.613 57.36 143.013 57.12 143.013 56.96C143.333 56.96 143.653 56.84 143.973 56.6V56.24L145.653 55.4V56.12H145.053C144.973 56.2 144.933 56.44 144.933 56.84L142.173 59C142.013 59 141.973 58.96 142.053 58.88H141.933C142.013 58.88 141.653 59.28 140.853 60.08C140.693 60.24 140.373 60.32 139.893 60.32C138.853 61.28 138.453 61.72 138.693 61.64C138.613 61.56 138.533 61.52 138.453 61.52C138.373 61.6 138.333 61.76 138.333 62H138.213C137.893 62 137.413 62.32 136.773 62.96C136.693 62.96 136.573 62.96 136.413 62.96C136.253 62.96 136.093 63 135.933 63.08C135.613 63.32 135.213 63.64 134.733 64.04C134.333 64.36 133.853 64.76 133.293 65.24H132.573C132.013 65.72 131.613 65.96 131.373 65.96H131.013C130.933 65.88 130.853 65.84 130.773 65.84C130.693 65.84 130.373 66 129.813 66.32C129.333 66.64 129.013 66.8 128.853 66.8H128.733C128.733 66.72 128.693 66.68 128.613 66.68C128.533 66.68 128.213 66.84 127.653 67.16C127.173 67.4 126.893 67.52 126.813 67.52H126.693C126.693 67.44 126.613 67.4 126.453 67.4C126.373 67.4 126.253 67.44 126.093 67.52C126.013 67.6 125.813 67.68 125.493 67.76C124.693 68.16 124.453 68.36 124.773 68.36C124.693 68.36 124.453 68.32 124.053 68.24C123.653 68.16 123.373 68.12 123.213 68.12L122.613 68.48ZM146.613 55.16C146.533 55.16 146.453 55.12 146.373 55.04C146.373 54.88 146.333 54.8 146.253 54.8L147.933 53C148.253 53 148.413 53.08 148.413 53.24C148.413 53.56 148.133 53.96 147.573 54.44C147.093 54.84 146.773 55.08 146.613 55.16ZM130.893 45.56C130.253 45.56 129.373 45.12 128.253 44.24C127.293 43.28 126.813 42.52 126.813 41.96C127.773 41.56 128.813 41.12 129.933 40.64C131.133 40.08 132.373 39.48 133.653 38.84H133.773C133.453 39.72 133.013 40.44 132.453 41L132.693 41.84V42.56L132.093 43.28C132.093 44.8 131.693 45.56 130.893 45.56ZM156.557 69.2C156.157 68.8 155.757 68.6 155.357 68.6L154.397 68.84C154.317 68.84 154.157 68.76 153.917 68.6C153.677 68.44 153.517 68.36 153.437 68.36C153.197 68.36 153.077 68.44 153.077 68.6C152.597 68.12 152.197 67.88 151.877 67.88H151.757C151.757 67.96 151.677 68 151.517 68C151.277 68 151.037 67.8 150.797 67.4L150.317 66.8C150.237 66.8 149.997 66.56 149.597 66.08C149.197 65.6 149.077 64.84 149.237 63.8V63.44C149.157 63.28 148.917 63.28 148.517 63.44C148.437 63.28 148.357 63.12 148.277 62.96C148.197 62.72 148.077 62.48 147.917 62.24C147.837 62.24 147.477 62.56 146.837 63.2L146.117 63.56L145.397 64.64C144.837 64.96 144.477 65.2 144.317 65.36C144.157 65.52 144.037 65.6 143.957 65.6H143.597C143.277 65.52 143.117 65.36 143.117 65.12C143.117 64.96 143.277 64.68 143.597 64.28C143.997 63.88 144.277 63.68 144.437 63.68C144.597 63.76 144.717 63.8 144.797 63.8L144.917 63.32C145.717 63 146.117 62.56 146.117 62L146.957 61.28C147.277 61.28 147.557 61.04 147.797 60.56L148.277 60.2L148.757 57.8C148.917 57.8 149.037 57.72 149.117 57.56C149.197 57.4 149.397 56.92 149.717 56.12C149.797 56.04 149.797 55.76 149.717 55.28C149.717 55.28 149.677 55.28 149.597 55.28C149.597 55.28 149.557 55.24 149.477 55.16C149.717 54.84 149.717 54.4 149.477 53.84C149.557 53.52 149.877 53.28 150.437 53.12C150.517 52.96 150.797 52.64 151.277 52.16C151.357 52.24 151.517 51.48 151.757 49.88C151.757 49.72 151.957 49.56 152.357 49.4C152.437 48.52 152.557 47.88 152.717 47.48C152.957 47 153.317 46.4 153.797 45.68C153.957 44.64 154.157 44 154.397 43.76C155.277 42.64 155.757 41.8 155.837 41.24C156.397 41.16 156.957 40.6 157.517 39.56C157.517 39.56 157.477 39.56 157.397 39.56C157.397 39.56 157.397 39.52 157.397 39.44C157.397 38.8 157.957 37.8 159.077 36.44C160.197 35.16 161.477 33.52 162.917 31.52C163.157 31.44 163.757 30.92 164.717 29.96C165.197 29.8 165.477 29.68 165.557 29.6C165.637 29.76 165.677 29.88 165.677 29.96C165.677 30.44 165.437 30.76 164.957 30.92C164.077 32.28 163.637 32.88 163.637 32.72C163.637 32.88 163.717 32.96 163.877 32.96C163.957 32.96 163.997 32.92 163.997 32.84H164.117C164.277 32.84 164.557 33.04 164.957 33.44C165.117 33.28 165.317 33.16 165.557 33.08C165.557 33.08 165.557 33.04 165.557 32.96C165.557 32.8 165.597 32.64 165.677 32.48C165.757 32.4 165.917 32.32 166.157 32.24C166.397 32.08 166.677 31.84 166.997 31.52C167.077 31.2 167.237 30.8 167.477 30.32C167.797 29.76 168.237 29.32 168.797 29C168.717 28.92 168.717 28.72 168.797 28.4C169.037 28.48 169.277 28.36 169.517 28.04C169.837 27.72 170.117 27.6 170.357 27.68C170.517 27.2 170.677 26.84 170.837 26.6L171.557 26.24C171.717 25.04 172.117 24.44 172.757 24.44C172.917 24.52 173.037 24.56 173.117 24.56L173.237 24.08C173.317 24 173.437 23.92 173.597 23.84C173.757 23.76 173.917 23.64 174.077 23.48V23.24C174.077 22.44 174.557 22 175.517 21.92C175.597 21.76 175.637 21.4 175.637 20.84H176.237C176.477 20.6 176.637 20.4 176.717 20.24C176.797 20.08 176.997 19.92 177.317 19.76C177.237 18.88 177.797 17.52 178.997 15.68C178.677 15.92 178.397 16.04 178.157 16.04C178.077 16.04 178.037 16 178.037 15.92C178.037 15.76 178.037 15.6 178.037 15.44C178.037 15.28 178.077 15.04 178.157 14.72C178.317 14.56 178.517 14.36 178.757 14.12C179.077 13.88 179.397 13.64 179.717 13.4C179.877 13.24 180.037 13.08 180.197 12.92C180.437 12.68 180.717 12.4 181.037 12.08C181.277 12 181.677 11.56 182.237 10.76C182.397 10.6 182.597 10.4 182.837 10.16C183.077 9.84 183.277 9.52 183.437 9.2C184.077 9.04 184.517 8.64 184.757 8C184.997 7.36 185.757 6.8 187.037 6.32C187.357 5.92 187.957 5.47999 188.837 5C188.837 5 188.917 4.76 189.077 4.28C189.557 4.12 190.197 3.52 190.997 2.48C191.077 2.32 191.517 1.96 192.317 1.4C193.197 0.759998 193.677 0.439997 193.757 0.439997H194.237C194.237 0.439997 194.517 0.599998 195.077 0.919998C195.637 1.16 196.317 1.52 197.117 2L197.357 3.43999L196.997 4.16L197.837 4.51999C197.917 4.51999 197.957 4.64 197.957 4.88C197.957 5.28 197.837 5.92 197.597 6.79999C197.517 7.28 197.437 7.76 197.357 8.24C197.357 8.64 197.397 9.04 197.477 9.44L195.077 12.8L194.237 14C194.157 14 193.957 14.08 193.637 14.24C192.757 15.04 191.757 16.48 190.637 18.56C190.557 18.56 190.517 18.56 190.517 18.56C190.517 18.48 190.477 18.44 190.397 18.44C189.997 18.68 189.637 19.2 189.317 20L188.237 20.48C188.077 20.8 187.837 21.12 187.517 21.44L187.277 21.2L186.917 22.4C186.517 22.72 186.277 23.04 186.197 23.36C186.197 23.6 186.077 23.88 185.837 24.2L184.397 25.4C184.317 25.48 183.837 25.8 182.957 26.36C182.157 26.92 181.757 27.32 181.757 27.56C181.277 28.12 180.637 28.84 179.837 29.72C179.117 30.52 178.237 31.52 177.197 32.72C176.877 33.12 176.437 33.6 175.877 34.16C175.397 34.64 174.757 35.2 173.957 35.84C173.797 36 173.517 36.32 173.117 36.8C172.717 37.2 172.237 37.72 171.677 38.36C171.277 38.6 170.797 38.92 170.237 39.32C169.677 39.72 169.077 40.2 168.437 40.76C168.437 40.84 168.317 40.96 168.077 41.12C167.837 41.28 167.477 41.72 166.997 42.44H166.637C166.397 42.76 166.077 43.12 165.677 43.52C165.357 43.92 164.997 44.44 164.597 45.08C164.437 45.08 164.317 45.12 164.237 45.2C163.677 46 163.077 46.6 162.437 47C162.437 47.08 162.357 47.2 162.197 47.36C162.117 47.52 161.877 47.72 161.477 47.96C161.477 48.12 161.397 48.36 161.237 48.68C161.077 49 160.757 49.28 160.277 49.52C160.197 49.6 160.157 49.76 160.157 50H159.797C159.557 50.24 159.357 50.56 159.197 50.96C158.397 51.2 158.037 51.6 158.117 52.16L157.037 53.12C156.317 53.68 155.597 54.44 154.877 55.4C154.797 55.64 154.557 56.68 154.157 58.52C154.317 58.68 154.317 59.12 154.157 59.84C153.917 60.64 153.797 61.16 153.797 61.4C153.797 61.64 153.797 61.8 153.797 61.88C153.797 62.28 153.997 62.76 154.397 63.32C154.877 63.88 155.117 64.32 155.117 64.64C155.357 64.8 155.677 64.8 156.077 64.64C156.077 64.8 156.237 64.92 156.557 65C156.797 65.56 157.277 65.88 157.997 65.96L158.357 65.48H158.717C158.797 65.8 158.997 65.96 159.317 65.96C159.477 65.96 159.677 65.88 159.917 65.72C160.237 65.56 160.437 65.48 160.517 65.48C160.437 65.56 160.557 65.64 160.877 65.72C160.957 65.64 160.997 65.44 160.997 65.12H161.957C163.557 65.12 164.557 64.8 164.957 64.16C165.277 64.08 165.637 63.96 166.037 63.8C166.437 63.64 166.917 63.48 167.477 63.32C167.797 63.16 167.997 62.92 168.077 62.6C167.997 62.6 167.957 62.56 167.957 62.48H169.277V61.88C169.437 61.8 169.877 61.76 170.597 61.76L171.077 61.04L172.397 60.32C172.477 60.32 172.637 60.28 172.877 60.2C173.197 60.12 173.597 59.8 174.077 59.24C174.237 59.24 174.397 59.2 174.557 59.12C175.037 58.8 175.797 58.08 176.837 56.96L179.117 55.76L179.357 55.52H180.437C180.357 55.84 180.117 56.24 179.717 56.72L178.157 57.8C177.117 58.52 176.637 58.88 176.717 58.88H176.597C176.597 58.8 176.557 58.76 176.477 58.76C175.837 59.08 175.437 59.48 175.277 59.96C175.037 59.96 174.877 60.12 174.797 60.44C174.637 60.44 174.437 60.48 174.197 60.56C174.197 60.56 174.197 60.6 174.197 60.68C174.197 60.68 174.157 60.76 174.077 60.92L172.517 62C172.517 62.4 172.197 62.68 171.557 62.84C171.317 62.84 171.037 62.68 170.717 62.36L169.997 62.84V62.96C169.997 63.36 169.797 63.68 169.397 63.92C168.997 64.16 168.677 64.2 168.437 64.04C168.517 64.12 168.557 64.28 168.557 64.52C168.557 64.6 168.357 64.92 167.957 65.48L165.077 66.92H164.957C164.957 66.84 164.877 66.8 164.717 66.8C164.237 66.8 163.757 67.04 163.277 67.52C163.037 67.6 162.557 67.76 161.837 68C161.117 68.24 160.717 68.36 160.637 68.36L160.277 68.12H158.717C158.397 68.12 158.197 68.24 158.117 68.48C158.037 68.72 157.917 68.84 157.757 68.84C157.677 68.84 157.637 68.8 157.637 68.72H157.397C156.917 68.72 156.637 68.88 156.557 69.2ZM157.157 51.44L157.637 51.2C158.037 50.8 158.437 50.32 158.837 49.76C159.317 49.2 159.797 48.6 160.277 47.96C160.277 47.96 160.397 47.84 160.637 47.6C160.877 47.36 160.997 47.12 160.997 46.88C161.397 46.48 161.837 46.08 162.317 45.68C162.797 45.2 163.357 44.68 163.997 44.12L164.477 43.28C164.557 43.2 164.677 43.12 164.837 43.04C164.997 42.96 165.157 42.84 165.317 42.68L167.957 40.04C168.037 39.96 168.077 39.8 168.077 39.56C168.637 39.16 168.957 38.8 169.037 38.48C169.197 38.4 169.477 38.16 169.877 37.76C170.277 37.36 170.757 36.84 171.317 36.2C171.637 36.2 172.037 35.84 172.517 35.12C172.677 35.04 172.957 34.8 173.357 34.4C174.397 32.64 174.917 31.72 174.917 31.64H175.277L177.077 29.72C177.397 29.4 177.557 28.96 177.557 28.4C178.917 27.76 179.677 26.96 179.837 26L180.677 25.4C180.677 25.16 180.957 24.76 181.517 24.2C181.517 24.2 181.557 24.2 181.637 24.2C181.717 24.2 181.797 24.16 181.877 24.08C182.037 23.84 182.197 23.56 182.357 23.24C182.597 22.84 182.877 22.36 183.197 21.8H183.797L184.157 20.96C184.317 20.64 184.557 20.32 184.877 20C185.277 19.6 185.677 19.12 186.077 18.56V18.08C186.317 18.08 186.597 17.96 186.917 17.72C186.997 17.56 187.077 17.4 187.157 17.24C187.237 17 187.357 16.72 187.517 16.4C187.837 15.84 188.237 15.2 188.717 14.48C189.277 13.76 189.877 12.92 190.517 11.96C190.517 11.4 190.837 10.72 191.477 9.92V9.56C191.557 9.48 191.517 9.44 191.357 9.44C191.197 9.44 191.037 9.52 190.877 9.68C188.877 11.2 187.237 12.48 185.957 13.52C184.757 14.56 183.957 15.32 183.557 15.8C183.317 15.88 183.077 16.12 182.837 16.52C182.837 16.52 182.717 16.64 182.477 16.88C182.317 17.12 182.037 17.44 181.637 17.84C181.397 18.16 181.037 18.28 180.557 18.2C180.477 18.84 179.997 19.48 179.117 20.12C178.317 20.68 177.877 21.2 177.797 21.68C176.997 22.08 175.997 23.04 174.797 24.56C173.757 25.6 172.317 27.28 170.477 29.6C169.997 29.84 169.397 30.6 168.677 31.88L167.837 32.6C167.837 32.92 167.477 33.28 166.757 33.68C166.757 33.92 166.597 34.2 166.277 34.52C165.957 34.84 165.797 35.08 165.797 35.24C165.557 35.56 165.157 35.96 164.597 36.44C164.597 36.44 164.517 36.68 164.357 37.16C164.197 37.48 163.997 37.76 163.757 38C163.517 38.16 163.317 38.32 163.157 38.48C163.077 38.8 163.037 39.04 163.037 39.2C163.037 39.36 163.037 39.48 163.037 39.56C162.637 39.96 162.197 40.52 161.717 41.24C161.317 41.96 160.877 42.76 160.397 43.64C159.997 43.64 159.677 44 159.437 44.72C159.197 45.44 158.997 45.84 158.837 45.92C158.677 46.08 158.477 46.2 158.237 46.28V46.76L158.717 47.12C158.397 47.84 157.997 48.24 157.517 48.32C157.517 48.64 157.437 48.96 157.277 49.28C157.277 49.36 157.357 49.4 157.517 49.4C157.357 49.8 157.237 50.04 157.157 50.12C157.077 50.2 156.957 50.32 156.797 50.48L157.157 51.44ZM186.797 49.52C186.797 49.2 187.117 48.72 187.757 48.08H187.877C187.877 48.16 187.917 48.2 187.997 48.2C188.077 48.2 188.357 47.88 188.837 47.24C189.317 46.52 189.597 46.16 189.677 46.16C189.917 46.16 190.197 46.28 190.517 46.52V47.6C190.357 47.68 190.157 47.88 189.917 48.2C189.677 48.44 189.517 48.56 189.437 48.56C189.197 48.56 188.957 48.44 188.717 48.2C188.637 48.2 188.477 48.44 188.237 48.92L187.157 49.52H186.797ZM181.997 54.2C181.997 54.04 181.837 53.92 181.517 53.84C182.077 53.52 182.917 52.72 184.037 51.44C184.357 51.52 184.637 51.28 184.877 50.72C185.117 50.16 185.397 49.84 185.717 49.76H186.317L186.557 50C186.477 50.24 186.357 50.52 186.197 50.84C186.037 51.16 185.837 51.52 185.597 51.92H185.477C185.237 51.92 184.957 52.08 184.637 52.4C184.397 52.64 184.277 52.84 184.277 53C184.277 53.08 184.117 53.2 183.797 53.36C183.477 53.44 183.037 53.72 182.477 54.2H181.997ZM180.557 55.4V54.32C180.717 54.4 180.837 54.48 180.917 54.56C180.997 54.56 181.037 54.56 181.037 54.56C181.197 54.56 181.277 54.48 181.277 54.32C181.437 54.48 181.677 54.56 181.997 54.56C181.517 55.12 181.037 55.4 180.557 55.4ZM192.651 69.2C192.251 68.8 191.851 68.6 191.451 68.6L190.491 68.84C190.411 68.84 190.251 68.76 190.011 68.6C189.771 68.44 189.611 68.36 189.531 68.36C189.291 68.36 189.171 68.44 189.171 68.6C188.691 68.12 188.291 67.88 187.971 67.88H187.851C187.851 67.96 187.771 68 187.611 68C187.371 68 187.131 67.8 186.891 67.4L186.411 66.8C186.331 66.8 186.091 66.56 185.691 66.08C185.291 65.6 185.171 64.84 185.331 63.8V63.44C185.251 63.28 185.011 63.28 184.611 63.44C184.531 63.28 184.451 63.12 184.371 62.96C184.291 62.72 184.171 62.48 184.011 62.24C183.931 62.24 183.571 62.56 182.931 63.2L182.211 63.56L181.491 64.64C180.931 64.96 180.571 65.2 180.411 65.36C180.251 65.52 180.131 65.6 180.051 65.6H179.691C179.371 65.52 179.211 65.36 179.211 65.12C179.211 64.96 179.371 64.68 179.691 64.28C180.091 63.88 180.371 63.68 180.531 63.68C180.691 63.76 180.811 63.8 180.891 63.8L181.011 63.32C181.811 63 182.211 62.56 182.211 62L183.051 61.28C183.371 61.28 183.651 61.04 183.891 60.56L184.371 60.2L184.851 57.8C185.011 57.8 185.131 57.72 185.211 57.56C185.291 57.4 185.491 56.92 185.811 56.12C185.891 56.04 185.891 55.76 185.811 55.28C185.811 55.28 185.771 55.28 185.691 55.28C185.691 55.28 185.651 55.24 185.571 55.16C185.811 54.84 185.811 54.4 185.571 53.84C185.651 53.52 185.971 53.28 186.531 53.12C186.611 52.96 186.891 52.64 187.371 52.16C187.451 52.24 187.611 51.48 187.851 49.88C187.851 49.72 188.051 49.56 188.451 49.4C188.531 48.52 188.651 47.88 188.811 47.48C189.051 47 189.411 46.4 189.891 45.68C190.051 44.64 190.251 44 190.491 43.76C191.371 42.64 191.851 41.8 191.931 41.24C192.491 41.16 193.051 40.6 193.611 39.56C193.611 39.56 193.571 39.56 193.491 39.56C193.491 39.56 193.491 39.52 193.491 39.44C193.491 38.8 194.051 37.8 195.171 36.44C196.291 35.16 197.571 33.52 199.011 31.52C199.251 31.44 199.851 30.92 200.811 29.96C201.291 29.8 201.571 29.68 201.651 29.6C201.731 29.76 201.771 29.88 201.771 29.96C201.771 30.44 201.531 30.76 201.051 30.92C200.171 32.28 199.731 32.88 199.731 32.72C199.731 32.88 199.811 32.96 199.971 32.96C200.051 32.96 200.091 32.92 200.091 32.84H200.211C200.371 32.84 200.651 33.04 201.051 33.44C201.211 33.28 201.411 33.16 201.651 33.08C201.651 33.08 201.651 33.04 201.651 32.96C201.651 32.8 201.691 32.64 201.771 32.48C201.851 32.4 202.011 32.32 202.251 32.24C202.491 32.08 202.771 31.84 203.091 31.52C203.171 31.2 203.331 30.8 203.571 30.32C203.891 29.76 204.331 29.32 204.891 29C204.811 28.92 204.811 28.72 204.891 28.4C205.131 28.48 205.371 28.36 205.611 28.04C205.931 27.72 206.211 27.6 206.451 27.68C206.611 27.2 206.771 26.84 206.931 26.6L207.651 26.24C207.811 25.04 208.211 24.44 208.851 24.44C209.011 24.52 209.131 24.56 209.211 24.56L209.331 24.08C209.411 24 209.531 23.92 209.691 23.84C209.851 23.76 210.011 23.64 210.171 23.48V23.24C210.171 22.44 210.651 22 211.611 21.92C211.691 21.76 211.731 21.4 211.731 20.84H212.331C212.571 20.6 212.731 20.4 212.811 20.24C212.891 20.08 213.091 19.92 213.411 19.76C213.331 18.88 213.891 17.52 215.091 15.68C214.771 15.92 214.491 16.04 214.251 16.04C214.171 16.04 214.131 16 214.131 15.92C214.131 15.76 214.131 15.6 214.131 15.44C214.131 15.28 214.171 15.04 214.251 14.72C214.411 14.56 214.611 14.36 214.851 14.12C215.171 13.88 215.491 13.64 215.811 13.4C215.971 13.24 216.131 13.08 216.291 12.92C216.531 12.68 216.811 12.4 217.131 12.08C217.371 12 217.771 11.56 218.331 10.76C218.491 10.6 218.691 10.4 218.931 10.16C219.171 9.84 219.371 9.52 219.531 9.2C220.171 9.04 220.611 8.64 220.851 8C221.091 7.36 221.851 6.8 223.131 6.32C223.451 5.92 224.051 5.47999 224.931 5C224.931 5 225.011 4.76 225.171 4.28C225.651 4.12 226.291 3.52 227.091 2.48C227.171 2.32 227.611 1.96 228.411 1.4C229.291 0.759998 229.771 0.439997 229.851 0.439997H230.331C230.331 0.439997 230.611 0.599998 231.171 0.919998C231.731 1.16 232.411 1.52 233.211 2L233.451 3.43999L233.091 4.16L233.931 4.51999C234.011 4.51999 234.051 4.64 234.051 4.88C234.051 5.28 233.931 5.92 233.691 6.79999C233.611 7.28 233.531 7.76 233.451 8.24C233.451 8.64 233.491 9.04 233.571 9.44L231.171 12.8L230.331 14C230.251 14 230.051 14.08 229.731 14.24C228.851 15.04 227.851 16.48 226.731 18.56C226.651 18.56 226.611 18.56 226.611 18.56C226.611 18.48 226.571 18.44 226.491 18.44C226.091 18.68 225.731 19.2 225.411 20L224.331 20.48C224.171 20.8 223.931 21.12 223.611 21.44L223.371 21.2L223.011 22.4C222.611 22.72 222.371 23.04 222.291 23.36C222.291 23.6 222.171 23.88 221.931 24.2L220.491 25.4C220.411 25.48 219.931 25.8 219.051 26.36C218.251 26.92 217.851 27.32 217.851 27.56C217.371 28.12 216.731 28.84 215.931 29.72C215.211 30.52 214.331 31.52 213.291 32.72C212.971 33.12 212.531 33.6 211.971 34.16C211.491 34.64 210.851 35.2 210.051 35.84C209.891 36 209.611 36.32 209.211 36.8C208.811 37.2 208.331 37.72 207.771 38.36C207.371 38.6 206.891 38.92 206.331 39.32C205.771 39.72 205.171 40.2 204.531 40.76C204.531 40.84 204.411 40.96 204.171 41.12C203.931 41.28 203.571 41.72 203.091 42.44H202.731C202.491 42.76 202.171 43.12 201.771 43.52C201.451 43.92 201.091 44.44 200.691 45.08C200.531 45.08 200.411 45.12 200.331 45.2C199.771 46 199.171 46.6 198.531 47C198.531 47.08 198.451 47.2 198.291 47.36C198.211 47.52 197.971 47.72 197.571 47.96C197.571 48.12 197.491 48.36 197.331 48.68C197.171 49 196.851 49.28 196.371 49.52C196.291 49.6 196.251 49.76 196.251 50H195.891C195.651 50.24 195.451 50.56 195.291 50.96C194.491 51.2 194.131 51.6 194.211 52.16L193.131 53.12C192.411 53.68 191.691 54.44 190.971 55.4C190.891 55.64 190.651 56.68 190.251 58.52C190.411 58.68 190.411 59.12 190.251 59.84C190.011 60.64 189.891 61.16 189.891 61.4C189.891 61.64 189.891 61.8 189.891 61.88C189.891 62.28 190.091 62.76 190.491 63.32C190.971 63.88 191.211 64.32 191.211 64.64C191.451 64.8 191.771 64.8 192.171 64.64C192.171 64.8 192.331 64.92 192.651 65C192.891 65.56 193.371 65.88 194.091 65.96L194.451 65.48H194.811C194.891 65.8 195.091 65.96 195.411 65.96C195.571 65.96 195.771 65.88 196.011 65.72C196.331 65.56 196.531 65.48 196.611 65.48C196.531 65.56 196.651 65.64 196.971 65.72C197.051 65.64 197.091 65.44 197.091 65.12H198.051C199.651 65.12 200.651 64.8 201.051 64.16C201.371 64.08 201.731 63.96 202.131 63.8C202.531 63.64 203.011 63.48 203.571 63.32C203.891 63.16 204.091 62.92 204.171 62.6C204.091 62.6 204.051 62.56 204.051 62.48H205.371V61.88C205.531 61.8 205.971 61.76 206.691 61.76L207.171 61.04L208.491 60.32C208.571 60.32 208.731 60.28 208.971 60.2C209.291 60.12 209.691 59.8 210.171 59.24C210.331 59.24 210.491 59.2 210.651 59.12C211.131 58.8 211.891 58.08 212.931 56.96L215.211 55.76L215.451 55.52H216.531C216.451 55.84 216.211 56.24 215.811 56.72L214.251 57.8C213.211 58.52 212.731 58.88 212.811 58.88H212.691C212.691 58.8 212.651 58.76 212.571 58.76C211.931 59.08 211.531 59.48 211.371 59.96C211.131 59.96 210.971 60.12 210.891 60.44C210.731 60.44 210.531 60.48 210.291 60.56C210.291 60.56 210.291 60.6 210.291 60.68C210.291 60.68 210.251 60.76 210.171 60.92L208.611 62C208.611 62.4 208.291 62.68 207.651 62.84C207.411 62.84 207.131 62.68 206.811 62.36L206.091 62.84V62.96C206.091 63.36 205.891 63.68 205.491 63.92C205.091 64.16 204.771 64.2 204.531 64.04C204.611 64.12 204.651 64.28 204.651 64.52C204.651 64.6 204.451 64.92 204.051 65.48L201.171 66.92H201.051C201.051 66.84 200.971 66.8 200.811 66.8C200.331 66.8 199.851 67.04 199.371 67.52C199.131 67.6 198.651 67.76 197.931 68C197.211 68.24 196.811 68.36 196.731 68.36L196.371 68.12H194.811C194.491 68.12 194.291 68.24 194.211 68.48C194.131 68.72 194.011 68.84 193.851 68.84C193.771 68.84 193.731 68.8 193.731 68.72H193.491C193.011 68.72 192.731 68.88 192.651 69.2ZM193.251 51.44L193.731 51.2C194.131 50.8 194.531 50.32 194.931 49.76C195.411 49.2 195.891 48.6 196.371 47.96C196.371 47.96 196.491 47.84 196.731 47.6C196.971 47.36 197.091 47.12 197.091 46.88C197.491 46.48 197.931 46.08 198.411 45.68C198.891 45.2 199.451 44.68 200.091 44.12L200.571 43.28C200.651 43.2 200.771 43.12 200.931 43.04C201.091 42.96 201.251 42.84 201.411 42.68L204.051 40.04C204.131 39.96 204.171 39.8 204.171 39.56C204.731 39.16 205.051 38.8 205.131 38.48C205.291 38.4 205.571 38.16 205.971 37.76C206.371 37.36 206.851 36.84 207.411 36.2C207.731 36.2 208.131 35.84 208.611 35.12C208.771 35.04 209.051 34.8 209.451 34.4C210.491 32.64 211.011 31.72 211.011 31.64H211.371L213.171 29.72C213.491 29.4 213.651 28.96 213.651 28.4C215.011 27.76 215.771 26.96 215.931 26L216.771 25.4C216.771 25.16 217.051 24.76 217.611 24.2C217.611 24.2 217.651 24.2 217.731 24.2C217.811 24.2 217.891 24.16 217.971 24.08C218.131 23.84 218.291 23.56 218.451 23.24C218.691 22.84 218.971 22.36 219.291 21.8H219.891L220.251 20.96C220.411 20.64 220.651 20.32 220.971 20C221.371 19.6 221.771 19.12 222.171 18.56V18.08C222.411 18.08 222.691 17.96 223.011 17.72C223.091 17.56 223.171 17.4 223.251 17.24C223.331 17 223.451 16.72 223.611 16.4C223.931 15.84 224.331 15.2 224.811 14.48C225.371 13.76 225.971 12.92 226.611 11.96C226.611 11.4 226.931 10.72 227.571 9.92V9.56C227.651 9.48 227.611 9.44 227.451 9.44C227.291 9.44 227.131 9.52 226.971 9.68C224.971 11.2 223.331 12.48 222.051 13.52C220.851 14.56 220.051 15.32 219.651 15.8C219.411 15.88 219.171 16.12 218.931 16.52C218.931 16.52 218.811 16.64 218.571 16.88C218.411 17.12 218.131 17.44 217.731 17.84C217.491 18.16 217.131 18.28 216.651 18.2C216.571 18.84 216.091 19.48 215.211 20.12C214.411 20.68 213.971 21.2 213.891 21.68C213.091 22.08 212.091 23.04 210.891 24.56C209.851 25.6 208.411 27.28 206.571 29.6C206.091 29.84 205.491 30.6 204.771 31.88L203.931 32.6C203.931 32.92 203.571 33.28 202.851 33.68C202.851 33.92 202.691 34.2 202.371 34.52C202.051 34.84 201.891 35.08 201.891 35.24C201.651 35.56 201.251 35.96 200.691 36.44C200.691 36.44 200.611 36.68 200.451 37.16C200.291 37.48 200.091 37.76 199.851 38C199.611 38.16 199.411 38.32 199.251 38.48C199.171 38.8 199.131 39.04 199.131 39.2C199.131 39.36 199.131 39.48 199.131 39.56C198.731 39.96 198.291 40.52 197.811 41.24C197.411 41.96 196.971 42.76 196.491 43.64C196.091 43.64 195.771 44 195.531 44.72C195.291 45.44 195.091 45.84 194.931 45.92C194.771 46.08 194.571 46.2 194.331 46.28V46.76L194.811 47.12C194.491 47.84 194.091 48.24 193.611 48.32C193.611 48.64 193.531 48.96 193.371 49.28C193.371 49.36 193.451 49.4 193.611 49.4C193.451 49.8 193.331 50.04 193.251 50.12C193.171 50.2 193.051 50.32 192.891 50.48L193.251 51.44ZM222.891 49.52C222.891 49.2 223.211 48.72 223.851 48.08H223.971C223.971 48.16 224.011 48.2 224.091 48.2C224.171 48.2 224.451 47.88 224.931 47.24C225.411 46.52 225.691 46.16 225.771 46.16C226.011 46.16 226.291 46.28 226.611 46.52V47.6C226.451 47.68 226.251 47.88 226.011 48.2C225.771 48.44 225.611 48.56 225.531 48.56C225.291 48.56 225.051 48.44 224.811 48.2C224.731 48.2 224.571 48.44 224.331 48.92L223.251 49.52H222.891ZM218.091 54.2C218.091 54.04 217.931 53.92 217.611 53.84C218.171 53.52 219.011 52.72 220.131 51.44C220.451 51.52 220.731 51.28 220.971 50.72C221.211 50.16 221.491 49.84 221.811 49.76H222.411L222.651 50C222.571 50.24 222.451 50.52 222.291 50.84C222.131 51.16 221.931 51.52 221.691 51.92H221.571C221.331 51.92 221.051 52.08 220.731 52.4C220.491 52.64 220.371 52.84 220.371 53C220.371 53.08 220.211 53.2 219.891 53.36C219.571 53.44 219.131 53.72 218.571 54.2H218.091ZM216.651 55.4V54.32C216.811 54.4 216.931 54.48 217.011 54.56C217.091 54.56 217.131 54.56 217.131 54.56C217.291 54.56 217.371 54.48 217.371 54.32C217.531 54.48 217.771 54.56 218.091 54.56C217.611 55.12 217.131 55.4 216.651 55.4ZM224.664 68.96C224.744 68.96 224.664 68.84 224.424 68.6C224.264 68.76 223.904 68.84 223.344 68.84C223.184 68.84 222.944 68.76 222.624 68.6C222.384 68.52 222.224 68.48 222.144 68.48C222.064 68.48 221.864 68.52 221.544 68.6C221.304 68.68 221.104 68.72 220.944 68.72C220.864 68.72 220.624 68.64 220.224 68.48C219.824 68.4 219.544 68.36 219.384 68.36C219.304 67.32 218.384 66.92 216.624 67.16V66.92C216.624 66.36 216.504 65.92 216.264 65.6C216.024 65.28 215.824 64.76 215.664 64.04C215.584 63.96 215.424 63.8 215.184 63.56C215.024 63.24 214.944 62.64 214.944 61.76C214.944 61.76 215.024 61.6 215.184 61.28C215.264 61.2 215.184 61 214.944 60.68C215.024 60.6 215.184 59.96 215.424 58.76C215.504 58.36 215.544 58.04 215.544 57.8C215.624 57.56 215.664 57.36 215.664 57.2C215.184 56.8 214.944 56.44 214.944 56.12L215.304 55.28C215.384 55.36 215.664 55.4 216.144 55.4H216.624C216.784 55.16 216.944 54.92 217.104 54.68C217.344 54.36 217.624 54.04 217.944 53.72C218.424 53.72 218.864 53.28 219.264 52.4L219.144 51.92C219.224 51.76 219.304 51.64 219.384 51.56C219.384 51.56 219.424 51.56 219.504 51.56C219.504 51.56 219.464 51.56 219.384 51.56C219.464 51.56 219.584 51.6 219.744 51.68C219.824 51.6 219.984 51.44 220.224 51.2C220.464 50.96 220.864 50.64 221.424 50.24C221.664 49.92 222.064 49.52 222.624 49.04C223.584 48.4 224.104 48.08 224.184 48.08C224.344 48.08 224.704 47.84 225.264 47.36C225.424 47.44 225.544 47.52 225.624 47.6C225.704 47.6 225.744 47.6 225.744 47.6C225.904 47.6 226.544 47.32 227.664 46.76C227.584 47.08 227.664 47.24 227.904 47.24H228.744C229.144 47 229.344 46.88 229.344 46.88C230.144 46.88 231.104 47.32 232.224 48.2C232.304 48.28 232.424 48.32 232.584 48.32V50.24C232.424 50.24 232.264 50.16 232.104 50L231.624 51.08C231.944 51.56 232.104 51.8 232.104 51.8C231.944 51.88 231.544 52.56 230.904 53.84V54.8C230.584 54.8 230.304 54.84 230.064 54.92C228.784 55.8 228.064 56.24 227.904 56.24H227.664C227.584 56.16 227.504 56.12 227.424 56.12C227.104 56.12 226.664 56.28 226.104 56.6C226.024 56.68 225.904 56.84 225.744 57.08C225.584 57.24 225.384 57.32 225.144 57.32H225.024C225.024 57.24 224.984 57.2 224.904 57.2C224.744 57.2 224.304 57.36 223.584 57.68C222.944 57.92 222.584 58.04 222.504 58.04H222.264C222.184 57.96 222.104 57.92 222.024 57.92L221.664 58.28H220.944C220.624 58.28 220.384 58.2 220.224 58.04H218.664C218.664 58.36 218.544 58.84 218.304 59.48C218.144 60.12 218.064 60.48 218.064 60.56C218.064 60.8 218.344 61.36 218.904 62.24C218.984 62.32 219.144 62.52 219.384 62.84C219.624 63.08 219.984 63.4 220.464 63.8C220.624 64.12 220.864 64.44 221.184 64.76C221.344 64.84 221.504 64.88 221.664 64.88C221.824 64.88 222.024 64.92 222.264 65L222.624 65.48C222.864 65.32 223.224 65.32 223.704 65.48L224.304 65.84C224.704 65.84 224.904 65.84 224.904 65.84C224.904 65.76 224.904 65.72 224.904 65.72C224.984 65.8 224.984 65.84 224.904 65.84C224.984 65.92 225.064 65.96 225.144 65.96C225.224 65.96 225.304 65.92 225.384 65.84C225.544 65.68 225.664 65.6 225.744 65.6H225.984C225.984 65.68 226.024 65.72 226.104 65.72C226.344 65.72 226.624 65.56 226.944 65.24C227.184 65.32 227.424 65.32 227.664 65.24L227.784 65.36V65.72C227.624 65.8 227.424 65.92 227.184 66.08C226.944 66.24 226.624 66.4 226.224 66.56V67.04C226.224 67.12 226.384 67.16 226.704 67.16C228.064 67.16 229.144 66.76 229.944 65.96C230.104 66.04 230.224 66.12 230.304 66.2C230.384 66.2 230.424 66.2 230.424 66.2C230.584 66.2 230.664 66.12 230.664 65.96H231.264C231.424 65.88 231.664 65.68 231.984 65.36C232.304 64.96 232.624 64.76 232.944 64.76L233.424 64.88L233.784 63.92L234.144 64.16C234.304 64 234.664 63.92 235.224 63.92C235.224 63.92 235.224 63.88 235.224 63.8C235.224 63.72 235.264 63.64 235.344 63.56C236.144 63.4 237.144 62.72 238.344 61.52H238.824L240.624 60.08C240.624 59.92 240.744 59.68 240.984 59.36C241.064 59.36 241.184 59.44 241.344 59.6L242.424 58.16C242.664 58.16 242.944 58.04 243.264 57.8L243.624 58.16L242.784 59.24C242.304 59.56 241.704 60.04 240.984 60.68C240.264 61.32 239.464 62.08 238.584 62.96C238.024 62.96 237.704 63.12 237.624 63.44C236.904 63.76 236.424 64.12 236.184 64.52L235.824 64.16C235.744 64.24 235.504 64.44 235.104 64.76C234.784 65 234.224 65.32 233.424 65.72C233.264 65.88 233.024 66.12 232.704 66.44C232.384 66.68 232.064 66.8 231.744 66.8C231.584 66.8 231.544 66.76 231.624 66.68H231.504C231.184 66.68 230.864 66.8 230.544 67.04C230.224 67.28 230.064 67.48 230.064 67.64C229.984 67.64 229.864 67.56 229.704 67.4C228.664 67.96 228.064 68.24 227.904 68.24H227.664L227.544 68.12L225.744 68.6C225.744 68.6 225.744 68.56 225.744 68.48C225.744 68.4 225.704 68.32 225.624 68.24L225.264 68.72C225.184 68.72 225.064 68.76 224.904 68.84C224.824 68.92 224.744 68.96 224.664 68.96ZM221.784 56.84C221.704 56.6 221.784 56.48 222.024 56.48C222.104 56.48 222.144 56.52 222.144 56.6H222.384C222.464 56.6 222.624 56.48 222.864 56.24C223.184 56 223.384 55.88 223.464 55.88C223.544 55.88 223.664 55.92 223.824 56C223.984 56.08 224.104 56.12 224.184 56.12C224.024 56.12 224.224 55.84 224.784 55.28L225.144 55.52C226.984 54.32 227.904 53.28 227.904 52.4C227.904 51.36 227.384 50.72 226.344 50.48C225.384 50.24 224.464 50 223.584 49.76C223.424 49.92 223.264 50 223.104 50C222.704 50.64 222.264 51.12 221.784 51.44C221.624 51.44 221.144 51.84 220.344 52.64C220.344 52.72 220.104 53.08 219.624 53.72C219.464 54.28 219.304 54.72 219.144 55.04C219.064 55.36 219.024 55.6 219.024 55.76C219.344 56.32 219.664 56.6 219.984 56.6H220.104C220.184 56.52 220.264 56.48 220.344 56.48C220.744 56.48 221.224 56.6 221.784 56.84ZM244.104 57.56V57.32C244.104 56.84 244.344 56.56 244.824 56.48C244.744 56.8 244.504 57.16 244.104 57.56Z" fill="black"/>
</svg>
