<svg width="172" height="180" viewBox="0 0 172 180" fill="none" xmlns="http://www.w3.org/2000/svg">
<g filter="url(#filter0_f_5_48)">
<ellipse cx="85.9728" cy="89.7909" rx="55.5" ry="59.5" fill="#2E4C76"/>
</g>
<path d="M129.145 96.9454C116.474 142.478 130.673 142.764 85.7273 144.073C42.7454 144.073 59.3273 144.073 44.0545 97.6C32.7091 53.7454 43.4943 55.709 83.9818 55.709C148.782 51.3454 142.018 50.6909 129.145 96.9454Z" fill="#A66300" fill-opacity="0.5"/>
<ellipse cx="86.8182" cy="92.3636" rx="39.4909" ry="49.5273" fill="#FFC700" fill-opacity="0.93"/>
<ellipse cx="86.8182" cy="89.0909" rx="34.2545" ry="46.2545" fill="white" fill-opacity="0.93"/>
<path d="M84.0891 31.2727L31.0709 61.1636L50.0527 57.8909M84.0891 31.2727L142.998 54.6182L50.0527 57.8909M84.0891 31.2727L50.0527 57.8909" stroke="black" stroke-width="2"/>
<path d="M34.5618 60.7272L56.5982 144.945L68.5982 144.523M68.5982 144.523L118.562 142.764L140.816 55.0545L51.58 57.8909L68.5982 144.523Z" stroke="black" stroke-width="2"/>
<path d="M83.8296 77.7454C82.0842 81.0181 78.8114 90.1818 80.3387 95.4181C82.0504 101.287 91.2975 102.419 93.6478 96.0727C95.8296 90.1818 92.1205 81.0181 90.1569 77.7454" stroke="#FFD058" stroke-width="2"/>
<path d="M106.562 143.2L117.907 55.7091" stroke="black" stroke-opacity="0.5" stroke-width="2"/>
<path d="M51.1436 58.3273L68.1618 144.073L56.8164 144.727L35.4346 61.1636L51.1436 58.3273Z" fill="#FFD159" fill-opacity="0.5"/>
<path d="M140.162 55.2727L118.125 142.545L69.0346 144.073L52.0164 58.3273L140.162 55.2727Z" fill="#FFD159" fill-opacity="0.5"/>
<path d="M145.393 73.5225C144.115 75.9138 137.414 75.7599 137.736 69.2024C137.919 65.4865 141.266 58.6394 147.381 61.1309C147.381 61.1309 150.818 61.2997 152.208 69.9133C153.599 78.5269 147.583 86.5575 146.017 88.8908C144.452 91.2241 141.8 95.2 136.115 102.208C130.43 109.217 127.703 114.723 125.711 118.35C123.72 121.977 122.929 130.702 122.929 130.702C122.929 130.702 122.701 139.017 126.5 139.204C130.299 139.39 130.96 137.013 131.067 134.827C131.175 132.641 130.772 129.773 126.908 130.898" stroke="black" stroke-width="2" stroke-linecap="round"/>
<path d="M34.7429 78.4411C35.688 80.7781 39.0816 80.4476 38.1106 73.9544C37.5604 70.275 35.4346 65.9636 32.1618 65.9636C32.1618 65.9636 29.5436 65.7454 30.1982 73.9544C30.8528 82.1635 35.232 91.4234 36.3163 93.6953C37.4006 95.9672 38.8935 99.727 42.998 106.637C47.1025 113.546 48.822 118.821 50.2826 122.365C51.7431 125.908 53.2198 134.538 53.2198 134.538C53.2198 134.538 54.3644 141.605 52.4527 141.891C50.5411 142.177 49.9063 141.008 49.5826 138.844C49.259 136.679 49.1113 133.825 51.2171 134.838" stroke="black" stroke-width="2" stroke-linecap="round"/>
<path d="M52.3234 76.3368C52.946 78.7086 54.5008 78.6538 53.5417 72.1953C52.9982 68.5355 51.2888 61.7484 50.1867 64.1124C50.1867 64.1124 49.4013 64.229 50.2348 72.6864C51.0683 81.1438 53.5646 89.1342 54.247 91.4532C54.9294 93.7722 55.9182 97.5859 58.3693 104.703C60.8204 111.82 62.0331 117.141 62.99 120.739C63.9468 124.337 65.3083 132.936 65.3083 132.936C65.3083 132.936 66.4819 141.123 65.6138 141.252C64.7458 141.381 64.2701 139.031 63.9504 136.879C63.6307 134.726 63.3391 131.909 64.3989 133.071" stroke="black" stroke-width="2" stroke-linecap="round"/>
<path d="M77.5437 35.2C78.7073 34.6909 80.8601 31.7091 81.0346 29.0909C81.3692 24.0727 76.671 22.7637 79.7255 17.9637C81.8854 14.5695 83.871 13.1637 83.6528 4.87274" stroke="black" stroke-width="2"/>
<path d="M90.1982 33.6727C88.9976 33.1674 87.2058 31.5132 87.0258 28.9142C86.6806 23.9326 91.5281 22.6331 88.3765 17.8681C86.1479 14.4988 84.0992 13.1031 84.3243 4.87274" stroke="black" stroke-width="2"/>
<path d="M84.3073 5.30909C84.3073 3.56364 83.6528 3.56364 83.6528 5.30909" stroke="black" stroke-width="2"/>
<path d="M83.8709 6.61816L84.5255 9.89089L86.2709 14.6909L88.4528 17.0909L89.5437 20.3636L89.1073 23.2L87.58 25.8182L86.9255 29.3091L88.4528 32.8L84.3073 32.3636L79.7255 33.2363L81.4709 29.3091L80.8164 25.8182L79.2891 23.4182L78.978 20.3636L79.9437 17.0909L81.6891 14.6909L83.4346 9.89089L83.8709 6.61816Z" fill="black"/>
<path d="M82.1255 32.3636L50.4891 57.2364L32.1618 60.7273L82.1255 32.3636Z" fill="#3C3C3C"/>
<path d="M83.2164 32.3636L85.6164 32.1454L141.907 54.4L51.7982 57.2364L83.2164 32.3636Z" fill="#242424"/>
<path d="M131.435 77.9636L115.944 139.273" stroke="#FFB800" stroke-opacity="0.5" stroke-width="2" stroke-linecap="round"/>
<path d="M135.144 62.0364L132.526 72.2909" stroke="#FFB800" stroke-opacity="0.5" stroke-width="2" stroke-linecap="round"/>
<path d="M68.5982 127.709L70.9982 141.455" stroke="#FFB800" stroke-opacity="0.5" stroke-width="2" stroke-linecap="round"/>
<path d="M100.016 60.7272L57.2528 62.2545" stroke="#FFB800" stroke-opacity="0.5" stroke-width="2" stroke-linecap="round"/>
<path d="M64.8891 70.3273L60.7437 70.5455" stroke="#FFB800" stroke-opacity="0.5" stroke-width="2" stroke-linecap="round"/>
<path d="M101.107 102.618L96.9619 102.836" stroke="#FFB800" stroke-opacity="0.5" stroke-width="2" stroke-linecap="round"/>
<path d="M105.471 94.3273L101.326 94.5455" stroke="#FFB800" stroke-opacity="0.5" stroke-width="2" stroke-linecap="round"/>
<path d="M109.835 60.2909L105.689 60.5091" stroke="#FFB800" stroke-opacity="0.5" stroke-width="2" stroke-linecap="round"/>
<path d="M80.1619 140.582L76.0164 140.8" stroke="#FFB800" stroke-opacity="0.5" stroke-width="2" stroke-linecap="round"/>
<path d="M74.0528 75.1273L69.9073 75.3454" stroke="#FFB800" stroke-opacity="0.5" stroke-width="2" stroke-linecap="round"/>
<ellipse cx="87.0364" cy="88.2182" rx="10.4727" ry="14.4" fill="#FFF6D8" fill-opacity="0.93"/>
<ellipse cx="87.2546" cy="84.0727" rx="7.2" ry="10.2545" fill="white" fill-opacity="0.93"/>
<defs>
<filter id="filter0_f_5_48" x="0.472778" y="0.290894" width="171" height="179" filterUnits="userSpaceOnUse" color-interpolation-filters="sRGB">
<feFlood flood-opacity="0" result="BackgroundImageFix"/>
<feBlend mode="normal" in="SourceGraphic" in2="BackgroundImageFix" result="shape"/>
<feGaussianBlur stdDeviation="15" result="effect1_foregroundBlur_5_48"/>
</filter>
</defs>
</svg>
